<svg width="103.531" height="128.129" viewBox="0 0 27.393 33.901" xml:space="preserve" xmlns="http://www.w3.org/2000/svg"><path style="fill:#fff;stroke-width:.164938px" d="M179.18-223.324c-3.84 0-6.193 2.934-6.17 5.87-.024 2.191.073 3.675-.037 4.747-.112 1.086-.35 1.775-1.221 2.889-1.905 2.431-3.138 4.317-3.713 6.283l.047-.086a.87.87 0 0 0-.139.295l-.002.004a.87.87 0 0 0-.002.006v.006l-.002.004c-.428 1.757-.436 3.29-.226 4.654-.013.025-.016.024-.03.053l.032-.045v.004a.87.87 0 0 0-.036.05c-.021.05-.166.187-.435.253a.87.87 0 0 0-.04.011l-.001.002-.008.002c-.379.108-.79.288-1.162.6a2.255 2.255 0 0 0-.801 1.434c-.085.573.016 1.056.072 1.369.057.316.066.507.051.578l.006-.03c-.02.088-.03.174-.03.254v-.017c.003-.099-.012.028-.099.25-.09.232-.256.68-.178 1.224.08.617.434 1.108.862 1.403.411.283.892.42 1.377.41h-.016c1.353-.003 2.713.318 3.984.875l-.027-.016a.643.643 0 0 1-.021-.01l-.014-.01-.086-.048s.042.02.074.039l-.187-.135a.87.87 0 0 0 .267.18h.002l.002.002a.87.87 0 0 0 .006.004c.002 0 .004 0 .006.002h.002c.34.143.76.287 1.248.324a2.481 2.481 0 0 0 1.598-.42c.112-.07.177-.14.264-.213 1.547-.093 2.759-.232 4.375-.295.534-.02 1.626.101 2.627.242.849.12 1.546.22 2.158.25.237.169.468.348.744.45a3.022 3.022 0 0 0 .457.127c.61.16 1.2.046 1.652-.16h.004c.033-.015.062-.03.086-.042.408-.202.726-.464.979-.7a.87.87 0 0 0 .012-.013l.006-.006.002-.002c.992-.957 2.147-1.724 3.408-2.19l.004-.003a2.334 2.334 0 0 0 1.142-.861c.297-.422.465-1 .326-1.608-.114-.543-.428-.91-.593-1.093-.162-.18-.221-.298-.182-.198l.006.018a1.111 1.111 0 0 0-.101-.21l-.002-.003c-.038-.061-.093-.236-.15-.555a9.678 9.678 0 0 0-.085-.422 3.544 3.544 0 0 0-.191-.617c-.029-.067-.053-.113-.073-.152.027.057.03.06-.008-.016a.87.87 0 0 0-.056-.103l.039.066c.007.013-.015-.027-.023-.045v-.002c-.022-.043-.016-.028-.028-.047l-.006-.008c-.02-.036-.048-.063-.07-.097.336-1.967.307-4.401-.38-6.33v-.002a.87.87 0 0 0-.009-.04.87.87 0 0 0-.059-.293 17.869 17.869 0 0 0-3.619-5.537 5.055 5.055 0 0 1-1.341-3.517.87.87 0 0 0 0-.004c.029-2.192-.123-4.319-1.018-6.06-.904-1.76-2.722-2.965-5.246-2.973a.87.87 0 0 0-.004 0z" transform="translate(-165.036 223.324)"/><path style="fill:#fff;fill-opacity:1;stroke-width:.164938px" d="M179.177-221.853h.002c2.109.008 3.25.826 3.943 2.174.693 1.348.881 3.268.853 5.365v.002a6.525 6.525 0 0 0 1.737 4.545l.006.004a16.394 16.394 0 0 1 3.332 5.09c.663 1.631.703 4.572.306 6.385a.323.323 0 0 0 .113.32c.075.06.135.131.18.22l.008.014c.134.237.19.532.25.87.059.326.133.693.34 1.042.115.277.3.467.44.623.143.161.231.282.257.416 0 .006.003.012.004.018a.52.52 0 0 1-.098.44.911.911 0 0 1-.43.32c-.001 0-.003 0-.005.002-1.486.548-2.816 1.438-3.942 2.525l-.004.004c-.203.19-.436.369-.667.475-.233.106-.45.141-.68.078l-.03-.006a1.801 1.801 0 0 1-.927-.487.324.324 0 0 0-.232-.094c-.344.007-1.313-.135-2.33-.279-1.017-.143-2.106-.286-2.89-.256-1.809.07-4.757.32-4.757.32l-.22.104s-.256.246-.401.33c-.01.005-.017.012-.025.018-.193.14-.411.179-.667.16a2.645 2.645 0 0 1-.789-.213c-1.435-.629-2.992-1.001-4.578-.998h-.008a.923.923 0 0 1-.515-.15.514.514 0 0 1-.244-.377l-.004-.018c-.023-.134.019-.277.097-.478.076-.193.18-.435.194-.729.077-.405.016-.778-.043-1.107-.06-.338-.11-.634-.066-.903 0-.005 0-.009.002-.014.023-.201.123-.357.29-.498.168-.14.4-.25.627-.314l-.011.002c.572-.14 1.164-.478 1.434-1.094a.857.857 0 0 1 .105-.178.323.323 0 0 0 .063-.263c-.256-1.257-.257-2.744.175-4.518l.002-.004v-.004c.455-1.689 1.607-3.482 3.535-5.943.998-1.274 1.396-2.367 1.527-3.649.132-1.282.02-2.747.045-4.894v-.008c-.02-2.185 1.57-4.39 4.696-4.39z" transform="translate(-165.036 223.324)"/><path style="fill:#000101;fill-opacity:1;stroke-width:.164938px" d="M179.179-222.455c-3.415 0-5.32 2.506-5.3 4.994-.025 2.17.082 3.643-.041 4.842-.123 1.199-.455 2.131-1.4 3.338-1.947 2.484-3.155 4.333-3.647 6.166 0 .002 0 .004-.002.006-.44 1.803-.443 3.342-.191 4.668-.042.063-.086.125-.117.195l-.002.002c-.17.39-.577.642-1.026.752-.003 0-.007.003-.01.004a2.295 2.295 0 0 0-.85.432 1.373 1.373 0 0 0-.501.883c-.064.4.01.768.07 1.1.06.333.103.628.046.906a.217.217 0 0 0-.006.05c-.003.156-.074.333-.16.551-.084.216-.18.482-.13.79.041.347.244.626.5.802.254.175.562.264.865.258 1.49-.003 2.967.347 4.335.947a3.168 3.168 0 0 0 .986.262c.35.026.726-.04 1.05-.268.16-.095.296-.219.426-.348 1.666-.09 2.91-.246 4.663-.314.684-.026 1.77.107 2.782.25.954.135 1.783.265 2.298.271a2.428 2.428 0 0 0 1.155.578c.385.104.76.034 1.08-.113l.06-.03a3.26 3.26 0 0 0 .772-.556l.002-.002c1.072-1.037 2.332-1.878 3.728-2.394l.006-.002c.287-.1.544-.288.723-.541.177-.253.271-.584.191-.922-.06-.31-.243-.526-.398-.7-.156-.174-.286-.315-.342-.46a.25.25 0 0 0-.024-.047c-.15-.24-.21-.532-.27-.865a9.01 9.01 0 0 0-.076-.386 2.707 2.707 0 0 0-.2-.588l-.007-.013-.006-.01c-.01-.019-.018-.038-.03-.058-.003-.008-.008-.015-.013-.022a1.255 1.255 0 0 0-.198-.27c.394-1.945.368-4.781-.364-6.58v-.002a16.997 16.997 0 0 0-3.451-5.276l-.004-.004a5.923 5.923 0 0 1-1.572-4.123c.028-2.138-.146-4.14-.922-5.65-.777-1.512-2.203-2.495-4.478-2.503zm.949 4.844a1.5 1.5 0 0 1 1.264.735c.442.864.298 2.028-.228 2.853.028.019.055.038.083.06.222.165.46.446.516.818a1.553 1.553 0 0 1-.172.849l1.109 3.184s1.405 2.766 2.083 4.32c.319.716.594 2.028.768 3.038.436-.035.814.04.814.04.074.017.147.034.22.053.197-1.231.326-3.969-1.802-6.126.056.048 2.764 2.1 2.258 6.264.412.143.806.333 1.174.568 1.453.757.82 1.81.82 1.81a5.227 5.227 0 0 1-.273.351 2.506 2.506 0 0 0-.301.006l-.01.002c-.46.053-.931-.043-1.227-.351l-.002-.002c-.313-.32-.74-.454-1.154-.447a1.844 1.844 0 0 0-.399.05c-.152.03-.303.08-.447.16l-.006.002c-.402.236-.626.618-.747 1.004-.122.386-.156.787-.19 1.129-.002.013-.002.026-.002.039.04.891-.31 1.72-.64 2.595-1.143.64-2.802 1.552-3.536 1.814-2.128.7-4.524-.123-5.726-1.966 1.764-.188 1.784-1.55.763-2.68-1.072-1.185-3.242-1.388-4.29-2.863-1.048-1.476.047-2.693 1.827-6.935-.5 1.556-2.69 6.42-1.07 6.801.289-4.62 3.339-5.867 3.83-11.32a3.225 3.225 0 0 1-.212-.218c-.15-.17-.299-.38-.366-.663a1.214 1.214 0 0 1 .209-.962c.14-.168.29-.311.444-.437-.442-.628-.652-1.52-.48-2.26.291-.942.63-1.044 1.006-1.078.368-.034 1.294.35 1.189 2.225a2.21 2.21 0 0 1 .727-.138h.004c.21-.002.406.021.592.061-.05-.504-.089-1.837.897-2.233.22-.108.453-.156.683-.152zm-.064 1.17c-.66.035-.883.811-.765 1.476.453.213.843.478 1.212.625.684-.744.503-2.034-.447-2.1zm-3.749.094c-.763.094-.778 1.39-.279 1.938.176-.113.346-.215.499-.316.11-.103.231-.192.359-.266a1.73 1.73 0 0 0 .031-.325c0-.569-.273-1.03-.61-1.031zm1.642 1.349a1.858 1.858 0 0 0-1.206.466c-.46.314-1.035.605-1.464 1.118a.894.894 0 0 0-.15.713c.05.214.17.39.302.539.264.298.607.527.747.656l.02.018c.265.197.586.486.964.697.378.21.848.345 1.336.166a.255.255 0 0 0 .043-.02c.406-.227 1.13-.488 1.754-.841.312-.177.604-.378.826-.635.222-.256.372-.585.351-.953 0-.01 0-.019-.002-.028a.982.982 0 0 0-.404-.63c-.184-.138-.383-.222-.544-.292l-.02-.01c-.79-.272-1.533-.974-2.55-.964h-.003z" transform="translate(-165.036 223.324)"/><path style="fill:#e8b200;fill-opacity:1;stroke-width:.821294" d="M170.038-198.905c-.065 0-.13.007-.195.017-.466.053-.913.316-1.109.755-.215.496-.708.788-1.215.912-.524.148-1.084.497-1.152 1.087-.11.681.255 1.34.116 2.023-.008.456-.373.838-.295 1.3.06.521.6.827 1.09.814 1.534-.003 3.048.357 4.447.97.553.234 1.244.401 1.774.018.863-.504 1.341-1.703.772-2.606-.722-1.357-2.13-2.24-2.617-3.755-.303-.621-.665-1.39-1.42-1.522a1.157 1.157 0 0 0-.196-.013zm16.034-.406a1.564 1.564 0 0 0-.349.046 1.26 1.26 0 0 0-.368.13c-.661.388-.734 1.234-.802 1.922.07 1.59-.942 2.908-1.147 4.43-.22 1.046.646 2.004 1.63 2.176.63.175 1.22-.222 1.658-.634 1.098-1.062 2.393-1.926 3.832-2.457.463-.158.863-.633.738-1.143-.088-.46-.563-.69-.73-1.116-.368-.591-.254-1.336-.594-1.936-.27-.53-.915-.662-1.458-.619-.518.06-1.083-.043-1.457-.433a1.288 1.288 0 0 0-.953-.366zm-8.108-15.402c-.38.007-.757.148-1.039.409-.483.333-1.035.614-1.419 1.073-.42.646.523 1.193.873 1.515.56.419 1.244 1.109 2.03.82.894-.5 2.85-1.02 2.785-2.162-.059-.388-.456-.565-.777-.704-.868-.299-1.584-.96-2.453-.95z" transform="translate(-165.036 223.324)"/><path class="c" d="M186.432-201.296s-1.954-.392-1.683 1.275c.27 1.666.932 1.987.932 1.987a1.349 1.349 0 0 0 1.619 0 4.21 4.21 0 0 0 1.288-1.19s.51-.85-.663-1.46a4.498 4.498 0 0 0-1.493-.612z" style="fill:#000101;fill-opacity:1;stroke-width:.821294" transform="translate(-165.036 223.324)"/></svg>